<?xml version="1.0" standalone="no"?>
<!DOCTYPE svg PUBLIC "-//W3C//DTD SVG 20010904//EN"
 "http://www.w3.org/TR/2001/REC-SVG-20010904/DTD/svg10.dtd">
<svg version="1.0" xmlns="http://www.w3.org/2000/svg"
 width="240.000000pt" height="240.000000pt" viewBox="0 0 240.000000 240.000000"
 preserveAspectRatio="xMidYMid meet">
<metadata>
Created by potrace 1.11, written by Peter Selinger 2001-2013
</metadata>
<g transform="translate(0.000000,240.000000) scale(0.100000,-0.100000)"
fill="#000000" stroke="none">
<path d="M1127 2284 c-3 -3 -23 -5 -46 -6 -22 0 -39 -4 -36 -8 2 -4 -7 -5 -20
-2 -14 2 -33 -2 -42 -9 -12 -10 -15 -10 -9 -1 5 9 2 10 -16 3 -13 -5 -44 -15
-70 -21 -26 -7 -46 -16 -43 -20 2 -4 -7 -6 -20 -4 -14 1 -25 -2 -25 -7 0 -4
-7 -6 -15 -3 -8 4 -15 1 -15 -5 0 -6 -9 -11 -20 -11 -11 0 -20 -5 -20 -11 0
-5 -4 -7 -10 -4 -5 3 -10 -2 -10 -12 0 -14 -2 -15 -9 -5 -6 11 -11 10 -25 -3
-9 -9 -16 -13 -16 -8 0 4 -5 0 -11 -10 -6 -9 -14 -15 -20 -12 -5 4 -9 1 -9 -4
0 -6 -6 -10 -12 -9 -7 2 -12 -3 -10 -10 1 -8 -2 -10 -8 -7 -6 4 -20 -3 -31
-16 -10 -12 -19 -18 -19 -14 0 4 -12 -5 -26 -21 -15 -16 -23 -22 -19 -14 4 8
-6 2 -22 -15 -16 -16 -28 -33 -26 -37 2 -5 -1 -8 -8 -8 -18 0 -90 -81 -82 -93
3 -5 2 -8 -3 -5 -10 7 -36 -17 -28 -25 3 -3 -4 -11 -16 -17 -12 -6 -19 -14
-16 -17 3 -3 -2 -12 -12 -20 -11 -10 -12 -12 -2 -8 9 4 7 0 -4 -9 -10 -8 -15
-20 -10 -27 4 -8 3 -10 -4 -5 -7 4 -18 -6 -27 -25 -9 -17 -12 -28 -6 -24 6 3
0 -11 -14 -32 -15 -20 -24 -45 -22 -55 3 -10 1 -16 -4 -12 -5 3 -10 0 -10 -5
-2 -14 -6 -29 -9 -36 -1 -3 -4 -9 -5 -15 -1 -5 -3 -11 -5 -12 -3 -5 -11 -42
-14 -68 -2 -14 -6 -32 -10 -41 -4 -8 -8 -34 -10 -56 -2 -22 -6 -45 -10 -51 -4
-7 -1 -12 6 -12 9 0 9 -3 -2 -10 -13 -9 -13 -11 0 -20 9 -6 10 -10 3 -10 -12
0 -11 -89 2 -170 3 -19 7 -46 10 -60 2 -14 6 -36 10 -50 4 -14 7 -31 7 -37 1
-7 5 -13 8 -13 4 0 7 -12 7 -27 0 -15 6 -29 12 -31 6 -2 8 -8 5 -13 -3 -6 0
-16 6 -24 7 -8 9 -15 4 -15 -5 0 -3 -4 4 -9 11 -7 18 -23 21 -53 1 -4 7 -13
13 -20 7 -7 19 -25 27 -40 8 -15 18 -25 23 -22 5 3 8 2 7 -3 -7 -41 35 -72 67
-49 9 7 14 18 10 24 -4 8 0 12 11 12 14 0 15 2 4 9 -9 6 -10 11 -2 15 6 4 11
12 11 17 0 6 -6 7 -12 3 -10 -6 -10 -5 -1 8 7 8 10 18 6 21 -3 4 0 7 8 7 11 0
11 2 -1 10 -10 6 -11 10 -3 10 7 0 12 6 10 13 -1 6 5 11 13 9 8 -2 12 0 8 4
-4 4 -2 14 5 22 10 13 9 15 -3 8 -8 -4 -7 -1 4 8 11 9 15 20 10 28 -4 7 -4 10
1 6 4 -4 16 4 27 17 11 14 24 23 29 20 5 -4 9 -1 9 4 0 6 6 10 13 8 6 -1 11 4
9 11 -2 9 2 11 10 6 18 -12 38 -14 38 -4 0 5 18 7 40 6 22 -2 40 1 40 6 0 5
11 1 23 -9 20 -15 22 -20 11 -31 -8 -7 -18 -11 -23 -8 -5 3 -14 -1 -21 -10
-11 -12 -11 -17 0 -27 10 -10 12 -9 7 5 -3 10 -1 20 5 24 7 4 8 3 4 -5 -8 -13
5 -19 49 -24 17 -2 36 -7 43 -11 7 -4 12 -2 12 6 0 9 3 9 10 -2 9 -13 10 -13
10 0 0 13 2 13 9 1 8 -13 12 -13 27 0 14 11 16 11 10 0 -7 -10 -3 -11 15 -5
13 4 65 9 114 10 115 4 157 8 170 15 6 4 18 5 28 4 9 -2 17 1 17 6 0 4 7 6 15
3 8 -4 15 -2 15 4 0 5 11 8 25 7 14 -2 25 1 25 6 0 5 3 8 8 7 15 -3 62 15 62
24 0 5 4 7 9 3 6 -3 14 3 20 12 5 10 13 15 16 11 4 -4 22 4 40 18 34 26 39 64
8 64 -8 0 -12 4 -8 10 3 5 -7 17 -22 27 -15 10 -31 22 -34 27 -4 5 -12 5 -18
2 -6 -4 -11 -4 -10 1 3 20 -2 27 -11 13 -8 -13 -10 -12 -10 3 0 10 -4 16 -9
12 -5 -3 -12 -1 -16 5 -4 6 -11 8 -16 5 -5 -4 -9 -2 -9 3 0 5 -6 9 -12 10 -23
2 -43 7 -55 15 -8 5 -13 3 -13 -5 0 -11 -2 -11 -8 0 -5 7 -24 15 -43 17 -19 2
-45 7 -59 10 -14 4 -35 7 -47 8 -13 1 -23 5 -23 11 0 5 -3 7 -6 3 -3 -3 -25 1
-47 10 -23 8 -46 16 -52 17 -5 1 -16 5 -22 9 -7 5 -18 5 -23 2 -5 -3 -10 -1
-10 4 0 6 -7 11 -16 11 -8 0 -12 4 -9 10 3 6 -1 7 -9 4 -9 -3 -16 -1 -16 5 0
6 -5 11 -12 11 -6 0 -20 8 -30 17 -18 16 -19 16 -13 -3 3 -10 -2 -4 -10 14 -8
17 -20 32 -26 32 -5 0 -7 5 -4 10 4 6 1 18 -7 27 -9 12 -9 15 0 9 6 -4 12 -3
12 3 0 5 -6 12 -12 14 -10 4 -9 6 1 6 10 1 11 4 2 15 -8 10 -9 16 -1 21 6 3 8
11 5 16 -4 5 -2 9 3 9 5 0 8 15 7 34 0 19 3 32 7 30 7 -5 12 22 6 29 -2 1 5
13 14 26 9 13 14 30 11 37 -3 8 0 14 6 14 6 0 11 6 11 14 0 7 7 19 15 26 13
11 13 15 3 21 -10 7 -10 9 -1 9 7 0 30 16 50 35 20 19 43 35 50 35 7 0 13 5
13 10 0 6 7 10 16 10 8 0 13 4 10 8 -2 4 5 9 17 9 12 1 23 7 25 13 2 5 12 10
23 10 10 0 19 5 19 10 0 6 6 10 13 9 21 -4 71 13 91 30 12 10 16 11 12 3 -7
-11 -4 -12 12 -3 11 6 34 12 51 13 17 1 31 5 31 8 0 3 10 7 23 8 12 0 42 4 67
7 25 3 86 6 137 7 56 1 90 5 86 11 -4 6 -1 7 8 1 23 -14 81 -15 73 -1 -6 9 -4
9 7 1 8 -6 42 -10 76 -10 33 1 59 -2 56 -6 -6 -12 12 -10 42 4 14 6 25 16 25
21 0 6 3 7 7 4 3 -4 19 6 34 22 15 16 29 27 32 25 2 -3 9 2 15 9 9 10 7 17 -8
30 -11 9 -20 14 -20 11 0 -4 -9 4 -21 17 -11 13 -18 17 -14 9 4 -8 -3 -4 -14
10 -11 14 -21 21 -21 17 0 -4 -10 1 -22 13 -12 11 -30 20 -40 20 -10 0 -18 5
-18 11 0 5 -4 7 -10 4 -5 -3 -10 -1 -10 5 0 6 -4 8 -10 5 -5 -3 -10 -1 -10 5
0 6 -4 8 -10 5 -5 -3 -10 -1 -10 5 0 6 -4 8 -10 5 -5 -3 -10 -1 -10 5 0 6 -4
9 -9 5 -5 -3 -12 -1 -16 4 -3 6 -12 8 -20 4 -8 -3 -15 1 -15 8 0 7 -3 10 -6 6
-4 -3 -19 0 -34 8 -22 11 -30 12 -33 2 -4 -9 -6 -9 -6 1 -1 7 -5 10 -11 7 -5
-3 -10 -2 -10 3 0 5 -6 9 -12 9 -7 0 -21 4 -30 8 -12 5 -18 3 -18 -6 0 -11 -3
-11 -10 1 -9 13 -11 13 -20 0 -8 -13 -10 -13 -10 1 0 12 -10 15 -37 15 -21 -1
-41 3 -45 9 -5 6 -12 5 -18 -5 -6 -10 -10 -11 -10 -3 0 16 -70 14 -70 -1 0 -8
-3 -8 -8 -1 -7 11 -46 17 -55 9z"/>
<path d="M1920 1981 c0 -6 -5 -11 -11 -11 -7 0 -22 -11 -34 -24 -12 -13 -28
-26 -36 -29 -9 -4 -10 -6 -1 -6 6 -1 12 -8 12 -17 0 -8 4 -13 8 -10 4 2 6 -26
5 -62 -4 -89 -5 -92 -16 -92 -5 0 -7 -7 -3 -15 3 -9 0 -15 -9 -15 -8 0 -20 -8
-27 -17 -7 -10 -20 -19 -28 -21 -8 -2 -20 -10 -26 -17 -6 -8 -13 -12 -17 -9
-3 3 -18 -1 -35 -10 -16 -8 -32 -12 -36 -9 -3 4 -6 1 -6 -6 0 -7 -4 -10 -9 -6
-5 3 -12 1 -16 -5 -4 -6 -11 -8 -16 -5 -5 4 -9 2 -9 -4 0 -5 -16 -15 -35 -21
-20 -7 -32 -16 -29 -22 4 -6 1 -9 -7 -6 -13 4 -21 0 -54 -30 -9 -8 -15 -9 -15
-3 0 6 -11 11 -25 11 -14 0 -25 3 -25 6 0 12 35 64 43 64 16 0 38 30 31 42 -6
9 -3 9 9 -1 15 -12 21 -9 18 11 0 4 6 5 14 2 8 -4 15 -1 15 6 0 6 5 8 10 5 6
-3 10 -1 10 5 0 6 4 9 8 6 5 -3 9 1 9 9 0 18 -9 19 -26 3 -8 -8 -11 -8 -8 -2
4 7 -3 12 -18 12 -14 0 -25 -6 -25 -12 0 -8 -2 -8 -8 0 -8 12 -102 15 -102 3
0 -4 -9 -6 -20 -4 -11 2 -20 -2 -20 -8 0 -8 -3 -7 -9 2 -6 9 -14 10 -22 5 -8
-5 -23 -9 -34 -9 -47 -1 -105 -17 -98 -27 3 -7 1 -8 -6 -4 -14 9 -73 -3 -66
-13 2 -5 -7 -7 -20 -5 -14 1 -25 -2 -25 -7 0 -6 -4 -7 -10 -4 -5 3 -10 1 -10
-4 0 -6 -3 -10 -7 -9 -18 5 -53 -14 -47 -25 4 -7 4 -9 -1 -5 -4 4 -14 3 -22
-3 -7 -6 -13 -8 -13 -4 0 3 -13 -7 -30 -23 -16 -17 -30 -35 -30 -41 0 -6 -6
-11 -12 -11 -10 0 -9 -3 1 -9 9 -6 10 -11 2 -15 -6 -4 -9 -12 -5 -17 9 -14 81
-49 88 -42 3 4 6 0 6 -7 0 -7 3 -10 7 -7 3 4 12 2 20 -4 7 -6 22 -9 33 -6 11
3 18 2 15 -3 -3 -4 4 -10 15 -13 13 -3 18 -1 13 6 -4 8 -2 8 9 0 8 -7 18 -10
21 -6 4 3 7 1 7 -4 0 -6 11 -10 25 -9 13 2 22 -1 19 -5 -3 -5 1 -10 8 -11 31
-3 60 -13 90 -29 10 -5 25 -9 33 -9 8 0 15 -5 15 -11 0 -5 4 -8 9 -4 5 3 12 1
16 -5 4 -6 11 -8 16 -5 5 4 9 1 9 -5 0 -6 5 -8 10 -5 6 3 10 2 10 -3 0 -9 47
-36 65 -37 12 0 23 -9 90 -72 28 -26 49 -51 48 -55 -2 -4 2 -8 8 -8 5 0 8 -4
4 -9 -3 -5 -1 -12 5 -16 6 -4 8 -11 5 -16 -4 -5 -2 -9 3 -9 5 0 7 -21 5 -47
-2 -27 -5 -58 -5 -70 -1 -13 -6 -23 -11 -23 -5 0 -6 -7 -3 -16 3 -8 2 -12 -4
-9 -6 3 -10 -3 -10 -14 0 -12 -5 -21 -11 -21 -5 0 -8 -4 -5 -9 3 -5 -1 -12
-10 -15 -8 -3 -12 -10 -9 -16 3 -5 1 -10 -4 -10 -6 0 -27 -16 -47 -35 -19 -19
-40 -35 -45 -35 -6 0 -8 -4 -5 -8 2 -4 -5 -9 -17 -9 -12 -1 -23 -7 -25 -13 -2
-5 -13 -10 -23 -10 -11 0 -18 -4 -15 -9 4 -5 -2 -8 -11 -6 -10 1 -26 -2 -36
-7 -10 -5 -28 -12 -40 -14 -12 -3 -29 -7 -37 -9 -8 -2 -21 -4 -28 -4 -7 -1
-11 -5 -8 -9 3 -5 -11 -7 -30 -6 -19 2 -33 0 -30 -4 3 -5 -5 -8 -17 -9 -69 -1
-78 -3 -71 -15 5 -8 1 -8 -10 1 -10 9 -20 11 -24 5 -4 -5 -36 -10 -72 -11
-113 -3 -130 -5 -123 -17 5 -8 3 -8 -8 0 -8 6 -32 12 -54 13 -81 3 -160 8
-165 10 -18 8 -41 8 -46 0 -3 -5 -12 -3 -20 5 -8 9 -21 13 -29 10 -8 -4 -15
-1 -15 6 0 6 -5 8 -11 5 -5 -4 -18 0 -27 8 -15 13 -20 14 -36 1 -11 -8 -16
-14 -10 -14 5 0 1 -5 -9 -11 -9 -6 -14 -15 -11 -21 4 -6 3 -8 -3 -5 -6 4 -16
0 -23 -8 -11 -13 -10 -14 2 -10 8 3 21 -2 29 -12 13 -16 12 -17 -4 -4 -15 12
-17 12 -12 -1 3 -8 19 -22 35 -32 17 -9 28 -22 25 -27 -4 -5 1 -9 10 -9 9 0
14 -4 11 -8 -5 -9 23 -38 37 -37 5 0 13 -8 18 -18 6 -9 14 -15 19 -12 4 3 11
-2 14 -11 3 -8 10 -13 15 -10 5 3 11 0 14 -8 7 -17 66 -48 78 -40 5 3 8 0 7
-7 -2 -7 6 -15 17 -17 11 -2 23 -9 26 -14 4 -6 18 -11 32 -11 14 -1 25 -6 24
-11 -2 -8 20 -16 51 -18 6 -1 12 -5 12 -10 0 -4 3 -7 8 -7 4 1 9 0 12 -1 15
-5 47 -11 63 -11 9 0 17 -4 17 -8 0 -8 10 -10 65 -13 19 -1 35 -5 35 -8 0 -3
10 -6 23 -7 12 0 42 -3 65 -7 33 -6 42 -4 36 5 -5 8 -3 9 7 3 8 -5 25 -10 37
-12 17 -2 22 1 16 10 -6 10 -5 10 7 2 16 -13 47 -12 68 1 10 6 12 4 6 -5 -6
-9 -4 -11 5 -5 7 4 27 10 44 11 17 2 42 6 56 8 14 2 33 5 43 5 10 1 16 5 13 9
-2 4 8 7 22 6 15 0 33 6 40 15 8 9 11 10 7 4 -8 -16 -4 -16 32 -1 31 13 38 15
54 17 5 0 7 6 3 13 -4 6 -3 8 3 5 12 -8 73 14 73 26 0 4 5 5 10 2 6 -3 10 -1
10 4 0 6 3 10 8 9 13 -4 52 13 52 23 0 5 7 9 15 9 8 0 15 5 15 10 0 6 7 10 15
10 7 0 18 7 23 16 5 9 13 17 18 17 5 1 8 6 6 10 -1 5 2 6 8 2 14 -9 183 162
174 177 -4 6 -3 8 3 5 9 -6 16 1 53 48 13 17 13 18 0 11 -8 -4 -6 0 5 9 11 9
19 21 18 26 -2 5 2 9 8 9 5 0 8 4 4 9 -3 6 3 14 12 20 10 6 14 11 8 11 -5 0
-4 4 3 9 7 4 14 17 15 29 0 11 4 19 7 17 7 -4 33 61 35 88 1 10 7 22 14 26 7
5 12 11 12 15 -1 3 -1 7 0 9 4 15 10 45 11 57 0 8 4 20 8 25 4 6 11 35 14 65
4 30 10 68 13 84 4 22 2 27 -8 20 -11 -6 -12 -5 -3 7 16 20 16 81 1 73 -8 -5
-8 -3 1 7 13 14 16 61 5 73 -4 4 -8 17 -9 29 -4 68 -10 93 -24 105 -8 8 -9 11
-2 7 14 -7 17 21 2 30 -5 3 -7 12 -3 20 3 8 0 15 -6 15 -6 0 -10 3 -10 8 4 22
-2 42 -10 37 -6 -3 -8 4 -6 15 2 11 -3 24 -13 30 -9 5 -12 10 -6 10 14 0 -15
70 -29 70 -4 0 -5 5 -2 10 3 6 1 10 -5 10 -6 0 -8 5 -5 10 3 6 -1 13 -9 16 -9
3 -13 10 -10 15 3 5 0 9 -5 9 -6 0 -10 6 -8 13 1 6 -3 11 -10 10 -8 -2 -10 4
-6 14 4 11 3 14 -5 9 -7 -4 -12 -1 -12 8 0 9 -10 26 -22 39 -13 12 -23 27 -23
32 0 6 -8 9 -18 9 -9 -1 -14 2 -11 8 7 11 -53 74 -62 65 -4 -4 -13 -2 -21 4
-9 9 -13 8 -13 0z"/>
<path d="M2375 1180 c-3 -5 -1 -10 4 -10 6 0 11 5 11 10 0 6 -2 10 -4 10 -3 0
-8 -4 -11 -10z"/>
</g>
</svg>
